<?xml version="1.0" encoding="utf-8"?>
<!-- Generator: Adobe Illustrator 19.2.1, SVG Export Plug-In . SVG Version: 6.00 Build 0)  -->
<svg version="1.1" id="Layer_1" xmlns="http://www.w3.org/2000/svg" xmlns:xlink="http://www.w3.org/1999/xlink" x="0px" y="0px"
	 viewBox="0 0 150 45" style="enable-background:new 0 0 150 45;" xml:space="preserve">
<style type="text/css">
	.st0{filter:url(#Adobe_OpacityMaskFilter);}
	.st1{fill:#FFFFFF;}
	.st2{mask:url(#SVGID_1_);fill:url(#SVGID_2_);}
</style>
<defs>
	<filter id="Adobe_OpacityMaskFilter" filterUnits="userSpaceOnUse" x="4" y="4" width="142" height="37">
		<feColorMatrix  type="matrix" values="1 0 0 0 0  0 1 0 0 0  0 0 1 0 0  0 0 0 1 0"/>
	</filter>
</defs>
<mask maskUnits="userSpaceOnUse" x="4" y="4" width="142" height="37" id="SVGID_1_">
	<g class="st0">
		<g>
			<path class="st1" d="M90.4,12.6c-0.6,0-1.2,0.2-1.6,0.6c-0.4,0.4-0.6,1-0.6,1.6c0,0.6,0.2,1.2,0.6,1.6c0.4,0.4,1,0.7,1.6,0.7
				c0.6,0,1.2-0.2,1.6-0.7c0.4-0.4,0.6-1,0.6-1.6c0-0.6-0.2-1.2-0.6-1.6C91.5,12.8,91,12.6,90.4,12.6z"/>
			<path class="st1" d="M92.3,20.6v-0.1h0c0-0.4-0.2-0.8-0.5-1.1c-0.4-0.4-0.8-0.5-1.4-0.5c-0.6,0-1,0.2-1.4,0.5
				c-0.3,0.3-0.5,0.7-0.5,1.1h0v0.1c0,0,0,0.1,0,0.1c0,0.1,0,0.1,0,0.1v13.8h0c0,0.5,0.2,1,0.5,1.4c0.4,0.4,0.8,0.6,1.4,0.6
				c0.5,0,1-0.2,1.4-0.6c0.4-0.4,0.5-0.8,0.5-1.4h0V20.8c0,0,0-0.1,0-0.1C92.3,20.7,92.3,20.6,92.3,20.6z"/>
			<g>
				<path class="st1" d="M108.6,8.9c-0.4-0.4-0.9-0.7-1.6-0.7c-0.6,0-1.2,0.2-1.6,0.7c-0.3,0.3-0.5,0.8-0.6,1.2h0v0
					c0,0.1,0,0.3,0,0.4c0,0.1,0,0.3,0,0.4v16.5c0,2.2-0.7,3.5-2.2,4.2c-0.9,0.4-2.5,0.8-4.9,0.8c-0.1,0-0.1,0-0.2,0
					c-0.6,0-1,0.2-1.4,0.6c-0.4,0.4-0.5,0.9-0.5,1.4c0,0.6,0.2,1.1,0.5,1.4c0.4,0.4,0.8,0.6,1.4,0.6h1.8c6.5,0,9.8-3.1,9.8-9.3V10.1
					h0C109.1,9.6,108.9,9.2,108.6,8.9z"/>
				<path class="st1" d="M143.9,34.6c0-0.5-0.2-1-0.5-1.3c-0.3-0.3-0.6-0.4-1-0.5v0h-0.1c-0.1,0-0.1,0-0.2,0c-0.1,0-0.2,0-0.3,0
					c-0.3,0-0.6,0-1.1,0.1c-0.7,0-1.2,0.1-1.5,0.1c-1.3,0-3-0.2-3-2V22h5.5v0c0.5,0,1-0.2,1.3-0.5c0.3-0.4,0.5-0.8,0.5-1.3
					c0-0.5-0.2-1-0.5-1.3c-0.4-0.4-0.8-0.5-1.3-0.5h-5.5v-3.6h0c0,0,0-0.1,0-0.1c0-0.5-0.2-1-0.5-1.4c-0.4-0.4-0.8-0.5-1.4-0.5
					c-0.5,0-1,0.2-1.4,0.5c-0.4,0.4-0.5,0.8-0.5,1.4c0,0,0,0.1,0,0.1h0v15.8c0,1.8,0.5,3.2,1.3,4.3c1,1.2,2.4,1.7,4.1,1.7h4.6v0
					c0.4-0.1,0.7-0.2,1-0.5C143.7,35.5,143.9,35.1,143.9,34.6z"/>
				<path class="st1" d="M130,27.4c-0.4-0.4-0.9-0.6-1.4-0.6c-0.6,0-1.1,0.2-1.4,0.6c-0.3,0.3-0.5,0.7-0.5,1.1l0,0
					c-0.5,1.5-1.2,2.7-2.2,3.3c-0.8,0.6-1.9,0.9-3.1,0.9c-1.6,0-2.9-0.5-3.9-1.6c-1-1.1-1.5-2.5-1.5-4.1c0-1.6,0.5-3,1.5-4.1
					c0.5-0.6,1.2-1,1.9-1.3c0.6-0.2,1.3-0.3,2-0.3c1.1,0,2.1,0.3,2.9,0.9c0.1,0.1,0.2,0.2,0.2,0.2c0,0.1-0.1,0.3-0.2,0.4
					c-0.1,0-0.1,0.1-0.2,0.1h0l-4.3,2.4c0,0,0,0,0,0c-0.2,0.1-0.4,0.2-0.6,0.4c-0.3,0.3-0.5,0.8-0.5,1.3c0,0.5,0.2,0.9,0.5,1.3
					c0.3,0.3,0.7,0.5,1.2,0.5c0.2,0,0.4,0,0.6-0.1c0,0,0,0,0,0l0,0c0.2-0.1,0.3-0.2,0.5-0.3l0.2-0.1l6.6-3.7c0.1,0,0.1-0.1,0.2-0.1
					c0.1-0.1,0.2-0.2,0.3-0.3c0.4-0.4,0.6-0.9,0.6-1.4c0-0.3-0.1-0.6-0.2-0.8c-0.1-0.2-0.2-0.3-0.3-0.5c-1.8-2.6-4.4-3.9-7.6-3.9
					c-1.4,0-2.7,0.3-3.8,0.8c-1,0.5-2,1.1-2.8,2c-1.8,1.8-2.7,4.1-2.7,6.7c0,2.6,0.9,4.9,2.7,6.7c1.8,1.8,4,2.7,6.7,2.7
					c1.8,0,3.5-0.4,5-1.3c0.5-0.3,1-0.7,1.4-1.1c1.3-1.2,2.2-2.6,2.6-4.3c0.1-0.2,0.2-0.5,0.2-0.8c0,0,0,0,0-0.1h0c0,0,0-0.1,0-0.1
					C130.6,28.3,130.4,27.8,130,27.4z"/>
			</g>
			<path class="st1" d="M24.9,17.1c0-3.6-1.4-5.8-3.1-7.4c-1.7-1.5-3.8-2.1-6.2-2.1c-2.9,0-5.3,0.8-7,2.7c-1.7,1.9-2.5,4.4-2.5,7.4
				v17.7h0c0,0.5,0.3,1,0.6,1.3c0.4,0.4,0.9,0.6,1.6,0.6c0.6,0,1.2-0.2,1.6-0.6c0.4-0.4,0.6-0.8,0.6-1.3h0V16.7
				c0-1.5,0.5-2.7,1.4-3.6c1-0.9,2.2-1.3,3.6-1.3c1.2,0,2.3,0.3,3.1,1c0.9,0.8,1.8,2.1,1.8,4.4c0,2-0.2,4-3.2,5.2
				c-0.9,0.4-0.3,0.4-2.9,0.4c0,0,0,0-0.1,0c0,0,0,0-0.1,0h0v0c-0.5,0-1,0.2-1.4,0.6c-0.4,0.4-0.6,0.9-0.6,1.5
				c0,0.6,0.2,1.1,0.6,1.5c0.4,0.4,0.8,0.6,1.4,0.6v0h0.1c0,0,0,0,0,0c0,0,0,0,0,0c3.9,0,3.9,0.3,4.9,1c0.9,0.6,1.4,2,1.4,4.5
				c0,0,0,0,0,0.1c0,0.1,0,0.2,0,0.3v1.6c0,0.1,0,0.2,0,0.3c0,0.6,0.2,1.1,0.6,1.6c0.4,0.4,0.9,0.6,1.6,0.6c0.6,0,1.2-0.2,1.6-0.6
				c0.3-0.3,0.5-0.7,0.6-1.1c0,0,0,0,0,0v-4.1c0-1.7-0.2-3.1-0.7-4.1c-0.5-1-1.4-1.8-2.5-2.4C24.2,23.3,24.9,19.8,24.9,17.1z"/>
			<path class="st1" d="M43.1,19.8c-0.4-0.4-0.9-0.7-1.4-1c-1.5-0.9-3.2-1.3-5.2-1.3c-1.5,0-2.8,0.3-4,0.8c-1,0.4-1.9,1-2.7,1.8
				c-0.5,0.5-1,1.1-1.4,1.7c-0.8,1.4-1.3,3.1-1.3,5c0,1.9,0.4,3.6,1.3,5.1c0.3,0.6,0.7,1.1,1.2,1.7c0.8,1,1.8,1.7,2.9,2.2
				c1.1,0.5,2.3,0.7,3.6,0.7c1.4,0,2.8-0.4,4.1-1.2v-4c-0.8,0.5-2.3,1.5-3.8,1.5c-1.5,0-2.8-0.5-3.8-1.6c0,0,0-0.1-0.1-0.1
				c-1-1.1-1.5-2.4-1.5-3.9c0-1.6,0.5-3,1.5-4.1c0,0,0,0,0,0c1-1.1,2.3-1.7,3.9-1.7c1.5,0,2.7,0.4,3.7,1.2c0,0,0,0,0,0
				c1.1,0.9,1.6,2,1.6,3.4v1.8V29v1.4h0v4.7h0c0,0.5,0.2,0.9,0.5,1.3c0.4,0.4,0.8,0.6,1.4,0.6c0.5,0,1-0.2,1.4-0.6
				c0.3-0.3,0.5-0.8,0.5-1.3c0,0,0,0,0,0v-6.1v-2.9c0-1.3-0.2-2.5-0.6-3.5C44.6,21.5,43.9,20.6,43.1,19.8z"/>
			<path class="st1" d="M57.1,18c-1.6,0-3,0.3-4.3,0.9v3.8c1.3-0.7,2.5-1,3.8-1c1.7,0,2.9,0.5,3.9,1.6c1,1.1,1.5,2.4,1.5,4.1
				c0,1.6-0.5,3-1.5,4.1c-1,1.1-2.3,1.6-4,1.6c-1.8,0-3.1-0.7-4-2.1c-0.8-1.2-1.2-2.8-1.2-4.7V25h0V12.8c0-0.1,0-0.2,0-0.3
				c0-0.5-0.2-1-0.5-1.4c-0.4-0.4-0.8-0.5-1.4-0.5c-0.5,0-1,0.2-1.4,0.5c-0.4,0.4-0.5,0.8-0.5,1.4h0V27c0,2.8,0.8,5.2,2.4,7
				c1.7,2,3.9,3,6.7,3c2.8,0,5.1-1,6.8-2.9c1.7-1.9,2.5-4.3,2.5-7.1c0-2.4-0.9-4.5-2.5-6.3C61.6,18.9,59.5,18,57.1,18z"/>
			<path class="st1" d="M77.1,18c-1.6,0-3,0.3-4.3,0.9v3.8c1.3-0.7,2.5-0.9,3.8-0.9c1.7,0,2.9,0.5,3.9,1.6c1,1.1,1.5,2.4,1.5,4.1
				c0,1.6-0.5,3-1.5,4.1c-1,1.1-2.3,1.6-4,1.6c-1.8,0-3.1-0.7-4-2.1c-0.8-1.2-1.2-2.8-1.2-4.7v-1.1V12.5h0c0-0.5-0.2-1-0.5-1.4
				c-0.4-0.4-0.8-0.5-1.4-0.5c-0.5,0-1,0.2-1.4,0.5c-0.4,0.4-0.5,0.8-0.5,1.4l0,0V27c0,2.8,0.8,5.2,2.4,7c1.7,2,3.9,3,6.7,3
				c2.8,0,5.1-1,6.8-2.9c1.7-1.9,2.5-4.3,2.5-7.1c0-2.4-0.9-4.5-2.5-6.3C81.6,18.9,79.5,18,77.1,18z"/>
		</g>
	</g>
</mask>
<linearGradient id="SVGID_2_" gradientUnits="userSpaceOnUse" x1="-113.8745" y1="27.3793" x2="-59.4613" y2="17.4599" gradientTransform="matrix(-2.6267 0 0 1 -153.8063 0)">
	<stop  offset="0.1866" style="stop-color:#FBB357"/>
	<stop  offset="0.4993" style="stop-color:#F6926D"/>
	<stop  offset="0.9133" style="stop-color:#F06B88"/>
</linearGradient>
<polygon class="st2" points="4,41 146,41 146,4 4,4 "/>
</svg>
